<control>


default_path=//NDK/samples/snares/sn12bop/brs/snare_off/cls\


<global>




ampeg_attack=0.001


ampeg_release=0.15


ampeg_dynamic=1




volume=0




<group> //Begin Group for entire instrument




<region>
sample=sn12bop_brsl_cls_001.wav
lokey=11
hikey=11
pitch_keycenter=11
lovel=0
hivel=2
volume=12


<region>
sample=sn12bop_brsl_cls_002.wav
lokey=11
hikey=11
pitch_keycenter=11
lovel=3
hivel=5
volume=12


<region>
sample=sn12bop_brsl_cls_003.wav
lokey=11
hikey=11
pitch_keycenter=11
lovel=6
hivel=8
volume=11


<region>
sample=sn12bop_brsl_cls_004.wav
lokey=11
hikey=11
pitch_keycenter=11
lovel=9
hivel=11
volume=11


<region>
sample=sn12bop_brsl_cls_005.wav
lokey=11
hikey=11
pitch_keycenter=11
lovel=12
hivel=14
volume=11


<region>
sample=sn12bop_brsl_cls_006.wav
lokey=11
hikey=11
pitch_keycenter=11
lovel=15
hivel=17
volume=10


<region>
sample=sn12bop_brsl_cls_007.wav
lokey=11
hikey=11
pitch_keycenter=11
lovel=18
hivel=20
volume=10


<region>
sample=sn12bop_brsl_cls_007r.wav
lokey=11
hikey=11
pitch_keycenter=11
lovel=21
hivel=23
volume=10


<region>
sample=sn12bop_brsl_cls_008.wav
lokey=11
hikey=11
pitch_keycenter=11
lovel=24
hivel=26
volume=10


<region>
sample=sn12bop_brsl_cls_009.wav
lokey=11
hikey=11
pitch_keycenter=11
lovel=27
hivel=29
volume=9


<region>
sample=sn12bop_brsl_cls_010.wav
lokey=11
hikey=11
pitch_keycenter=11
lovel=30
hivel=32
volume=9


<region>
sample=sn12bop_brsl_cls_011.wav
lokey=11
hikey=11
pitch_keycenter=11
lovel=33
hivel=35
volume=9


<region>
sample=sn12bop_brsl_cls_012.wav
lokey=11
hikey=11
pitch_keycenter=11
lovel=36
hivel=38
volume=9


<region>
sample=sn12bop_brsl_cls_013.wav
lokey=11
hikey=11
pitch_keycenter=11
lovel=39
hivel=41
volume=8


<region>
sample=sn12bop_brsl_cls_013r.wav
lokey=11
hikey=11
pitch_keycenter=11
lovel=42
hivel=44
volume=8


<region>
sample=sn12bop_brsl_cls_014.wav
lokey=11
hikey=11
pitch_keycenter=11
lovel=45
hivel=47
volume=8


<region>
sample=sn12bop_brsl_cls_015.wav
lokey=11
hikey=11
pitch_keycenter=11
lovel=48
hivel=50
volume=7


<region>
sample=sn12bop_brsl_cls_016r.wav
lokey=11
hikey=11
pitch_keycenter=11
lovel=51
hivel=53
volume=7


<region>
sample=sn12bop_brsl_cls_016.wav
lokey=11
hikey=11
pitch_keycenter=11
lovel=54
hivel=56
volume=7


<region>
sample=sn12bop_brsl_cls_017r.wav
lokey=11
hikey=11
pitch_keycenter=11
lovel=57
hivel=59
volume=7


<region>
sample=sn12bop_brsl_cls_017.wav
lokey=11
hikey=11
pitch_keycenter=11
lovel=60
hivel=62
volume=6


<region>
sample=sn12bop_brsl_cls_018.wav
lokey=11
hikey=11
pitch_keycenter=11
lovel=63
hivel=65
volume=6


<region>
sample=sn12bop_brsl_cls_019.wav
lokey=11
hikey=11
pitch_keycenter=11
lovel=66
hivel=68
volume=6


<region>
sample=sn12bop_brsl_cls_020r.wav
lokey=11
hikey=11
pitch_keycenter=11
lovel=69
hivel=71
volume=5


<region>
sample=sn12bop_brsl_cls_020.wav
lokey=11
hikey=11
pitch_keycenter=11
lovel=72
hivel=74
volume=5


<region>
sample=sn12bop_brsl_cls_021.wav
lokey=11
hikey=11
pitch_keycenter=11
lovel=75
hivel=77
volume=5


<region>
sample=sn12bop_brsl_cls_021r.wav
lokey=11
hikey=11
pitch_keycenter=11
lovel=78
hivel=80
volume=5


<region>
sample=sn12bop_brsl_cls_022r.wav
lokey=11
hikey=11
pitch_keycenter=11
lovel=81
hivel=83
volume=4


<region>
sample=sn12bop_brsl_cls_022.wav
lokey=11
hikey=11
pitch_keycenter=11
lovel=84
hivel=86
volume=4


<region>
sample=sn12bop_brsl_cls_023r.wav
lokey=11
hikey=11
pitch_keycenter=11
lovel=87
hivel=89
volume=4


<region>
sample=sn12bop_brsl_cls_023.wav
lokey=11
hikey=11
pitch_keycenter=11
lovel=90
hivel=92
volume=3


<region>
sample=sn12bop_brsl_cls_024.wav
lokey=11
hikey=11
pitch_keycenter=11
lovel=93
hivel=95
volume=3


<region>
sample=sn12bop_brsl_cls_024r.wav
lokey=11
hikey=11
pitch_keycenter=11
lovel=96
hivel=98
volume=3


<region>
sample=sn12bop_brsl_cls_025.wav
lokey=11
hikey=11
pitch_keycenter=11
lovel=99
hivel=101
volume=3


<region>
sample=sn12bop_brsl_cls_025r.wav
lokey=11
hikey=11
pitch_keycenter=11
lovel=102
hivel=104
volume=2


<region>
sample=sn12bop_brsl_cls_027.wav
lokey=11
hikey=11
pitch_keycenter=11
lovel=105
hivel=107
volume=2


<region>
sample=sn12bop_brsl_cls_026.wav
lokey=11
hikey=11
pitch_keycenter=11
lovel=108
hivel=110
volume=2


<region>
sample=sn12bop_brsl_cls_026r.wav
lokey=11
hikey=11
pitch_keycenter=11
lovel=111
hivel=113
volume=1


<region>
sample=sn12bop_brsl_cls_027r.wav
lokey=11
hikey=11
pitch_keycenter=11
lovel=114
hivel=116
volume=1


<region>
sample=sn12bop_brsl_cls_028r.wav
lokey=11
hikey=11
pitch_keycenter=11
lovel=117
hivel=119
volume=1


<region>
sample=sn12bop_brsl_cls_028.wav
lokey=11
hikey=11
pitch_keycenter=11
lovel=120
hivel=122
volume=1


<region>
sample=sn12bop_brsl_cls_029r.wav
lokey=11
hikey=11
pitch_keycenter=11
lovel=123
hivel=127
volume=0


